<svg xmlns="http://www.w3.org/2000/svg" xmlns:xlink="http://www.w3.org/1999/xlink" width="800" zoomAndPan="magnify" viewBox="0 0 600 599.999999" height="800" preserveAspectRatio="xMidYMid meet" version="1.0"><defs><clipPath id="263945a537"><path d="M 30.328125 43.070312 L 448 43.070312 L 448 461 L 30.328125 461 Z M 30.328125 43.070312 " clip-rule="nonzero"/></clipPath><clipPath id="f3656101b2"><path d="M 116 122 L 569.578125 122 L 569.578125 556.765625 L 116 556.765625 Z M 116 122 " clip-rule="nonzero"/></clipPath></defs><g clip-path="url(#263945a537)"><path fill="#32c888" d="M 239.078125 460.773438 C 123.8125 460.773438 30.328125 367.289062 30.328125 252.023438 C 30.328125 136.757812 123.8125 43.269531 239.078125 43.269531 C 354.34375 43.265625 447.832031 136.753906 447.832031 252.023438 C 447.832031 290.238281 437.453125 326.09375 419.578125 356.910156 C 364.925781 337.394531 310.273438 317.875 255.617188 298.457031 C 275.035156 347.871094 294.554688 397.285156 314.074219 446.800781 C 290.753906 455.738281 265.480469 460.773438 239.078125 460.773438 " fill-opacity="1" fill-rule="nonzero"/></g><g clip-path="url(#f3656101b2)"><path fill="#000000" d="M 516.351562 555.289062 C 518.304688 553.234375 518.203125 549.945312 516.148438 547.992188 L 446.1875 481.628906 C 444.132812 479.675781 440.84375 479.78125 438.890625 481.835938 L 388.347656 535.152344 L 289.210938 283.871094 L 541.523438 373.863281 L 490.976562 424.816406 C 489.949219 425.84375 489.4375 427.179688 489.539062 428.515625 C 489.539062 429.953125 490.15625 431.1875 491.183594 432.214844 L 561.039062 496.421875 C 563.09375 498.375 566.382812 498.167969 568.335938 496.113281 C 570.285156 494.058594 570.082031 490.773438 568.027344 488.820312 L 502.074219 428.207031 L 554.570312 375.300781 C 555.800781 374.066406 556.316406 372.21875 555.90625 370.574219 C 555.492188 368.828125 554.261719 367.492188 552.617188 366.875 L 282.019531 270.308594 C 280.171875 269.589844 278.015625 270.101562 276.574219 271.542969 C 275.136719 272.980469 274.726562 275.136719 275.445312 276.984375 L 381.671875 546.351562 C 382.285156 547.992188 383.726562 549.125 385.472656 549.535156 C 387.21875 549.84375 388.964844 549.328125 390.199219 547.992188 L 442.796875 492.519531 L 509.058594 555.289062 C 510.085938 556.210938 511.320312 556.726562 512.550781 556.726562 C 513.988281 556.929688 515.324219 556.417969 516.351562 555.289062 Z M 242.777344 245.035156 C 244.730469 242.980469 244.730469 239.796875 242.675781 237.742188 L 171.273438 168.089844 C 169.21875 166.136719 166.035156 166.136719 163.980469 168.191406 C 162.03125 170.246094 162.03125 173.433594 164.085938 175.488281 L 235.484375 245.140625 C 236.511719 246.0625 237.742188 246.578125 239.078125 246.578125 C 240.414062 246.578125 241.75 246.0625 242.777344 245.035156 Z M 219.25 307.496094 C 219.25 304.621094 216.992188 302.359375 214.113281 302.359375 L 121.246094 302.359375 C 118.367188 302.359375 116.109375 304.621094 116.109375 307.496094 C 116.109375 310.375 118.367188 312.632812 121.246094 312.632812 L 214.113281 312.632812 C 216.886719 312.632812 219.25 310.375 219.25 307.496094 Z M 299.792969 221.613281 C 296.917969 221.613281 294.65625 219.351562 294.65625 216.476562 L 294.65625 127.199219 C 294.65625 124.324219 296.917969 122.0625 299.792969 122.0625 C 302.667969 122.0625 304.929688 124.324219 304.929688 127.199219 L 304.929688 216.476562 C 304.929688 219.25 302.566406 221.613281 299.792969 221.613281 " fill-opacity="1" fill-rule="nonzero"/></g></svg>