<svg xmlns="http://www.w3.org/2000/svg" xmlns:xlink="http://www.w3.org/1999/xlink" width="300" zoomAndPan="magnify" viewBox="0 0 224.87999 56.249996" height="75" preserveAspectRatio="xMidYMid meet" version="1.0"><defs><g/><clipPath id="f4cc03fc84"><path d="M 5.78125 6.785156 L 40 6.785156 L 40 41 L 5.78125 41 Z M 5.78125 6.785156 " clip-rule="nonzero"/></clipPath><clipPath id="7692ed1d7f"><path d="M 12.742188 13.171875 L 49.449219 13.171875 L 49.449219 48.707031 L 12.742188 48.707031 Z M 12.742188 13.171875 " clip-rule="nonzero"/></clipPath></defs><g clip-path="url(#f4cc03fc84)"><path fill="#32c888" d="M 22.816406 40.871094 C 13.410156 40.871094 5.78125 33.242188 5.78125 23.835938 C 5.78125 14.429688 13.410156 6.800781 22.816406 6.800781 C 32.222656 6.800781 39.855469 14.429688 39.855469 23.835938 C 39.855469 26.957031 39.007812 29.882812 37.546875 32.398438 C 33.089844 30.804688 28.628906 29.210938 24.167969 27.625 C 25.753906 31.660156 27.34375 35.691406 28.9375 39.734375 C 27.035156 40.460938 24.972656 40.871094 22.816406 40.871094 " fill-opacity="1" fill-rule="nonzero"/></g><g clip-path="url(#7692ed1d7f)"><path fill="#000000" d="M 45.445312 48.585938 C 45.605469 48.417969 45.597656 48.148438 45.429688 47.992188 L 39.71875 42.574219 C 39.550781 42.414062 39.285156 42.425781 39.125 42.589844 L 35 46.941406 L 26.910156 26.4375 L 47.5 33.78125 L 43.375 37.9375 C 43.289062 38.023438 43.25 38.132812 43.257812 38.242188 C 43.257812 38.359375 43.308594 38.457031 43.390625 38.542969 L 49.09375 43.78125 C 49.261719 43.941406 49.527344 43.925781 49.6875 43.757812 C 49.847656 43.589844 49.832031 43.320312 49.664062 43.160156 L 44.28125 38.214844 L 48.5625 33.898438 C 48.664062 33.796875 48.707031 33.644531 48.671875 33.511719 C 48.640625 33.371094 48.539062 33.261719 48.40625 33.210938 L 26.324219 25.328125 C 26.171875 25.269531 25.996094 25.3125 25.878906 25.429688 C 25.761719 25.546875 25.726562 25.722656 25.785156 25.875 L 34.453125 47.855469 C 34.503906 47.992188 34.621094 48.082031 34.765625 48.117188 C 34.90625 48.140625 35.050781 48.101562 35.148438 47.992188 L 39.441406 43.464844 L 44.851562 48.585938 C 44.933594 48.660156 45.035156 48.703125 45.136719 48.703125 C 45.253906 48.71875 45.363281 48.679688 45.445312 48.585938 Z M 23.121094 23.265625 C 23.277344 23.097656 23.277344 22.839844 23.109375 22.671875 L 17.285156 16.988281 C 17.117188 16.828125 16.855469 16.828125 16.6875 16.996094 C 16.53125 17.164062 16.53125 17.421875 16.699219 17.589844 L 22.523438 23.277344 C 22.609375 23.351562 22.707031 23.394531 22.816406 23.394531 C 22.925781 23.394531 23.035156 23.351562 23.121094 23.265625 Z M 21.199219 28.363281 C 21.199219 28.128906 21.015625 27.945312 20.78125 27.945312 L 13.203125 27.945312 C 12.96875 27.945312 12.78125 28.128906 12.78125 28.363281 C 12.78125 28.597656 12.96875 28.785156 13.203125 28.785156 L 20.78125 28.785156 C 21.007812 28.785156 21.199219 28.597656 21.199219 28.363281 Z M 27.773438 21.355469 C 27.539062 21.355469 27.351562 21.171875 27.351562 20.9375 L 27.351562 13.652344 C 27.351562 13.417969 27.539062 13.230469 27.773438 13.230469 C 28.007812 13.230469 28.191406 13.417969 28.191406 13.652344 L 28.191406 20.9375 C 28.191406 21.164062 28 21.355469 27.773438 21.355469 " fill-opacity="1" fill-rule="nonzero"/></g><g fill="#000000" fill-opacity="1"><g transform="translate(49.812183, 35.533187)"><g><path d="M 1.453125 0.21875 C 0.867188 0.238281 0.40625 0.0820312 0.0625 -0.25 C -0.269531 -0.59375 -0.4375 -1.023438 -0.4375 -1.546875 C -0.4375 -1.953125 -0.316406 -2.304688 -0.078125 -2.609375 C 0.160156 -2.921875 0.515625 -3.085938 0.984375 -3.109375 L 1.9375 -3.171875 C 2.863281 -3.234375 3.5625 -3.519531 4.03125 -4.03125 C 4.507812 -4.550781 4.75 -5.300781 4.75 -6.28125 L 4.75 -20.53125 C 4.75 -21.207031 4.921875 -21.71875 5.265625 -22.0625 C 5.617188 -22.414062 6.125 -22.59375 6.78125 -22.59375 C 7.4375 -22.59375 7.9375 -22.414062 8.28125 -22.0625 C 8.632812 -21.71875 8.8125 -21.207031 8.8125 -20.53125 L 8.8125 -6.3125 C 8.8125 -4.976562 8.570312 -3.84375 8.09375 -2.90625 C 7.625 -1.976562 6.921875 -1.253906 5.984375 -0.734375 C 5.054688 -0.222656 3.90625 0.0703125 2.53125 0.15625 Z M 1.453125 0.21875 "/></g></g></g><g fill="#000000" fill-opacity="1"><g transform="translate(61.026399, 35.533187)"><g><path d="M 9.796875 0.25 C 9.140625 0.25 8.632812 0.0664062 8.28125 -0.296875 C 7.9375 -0.671875 7.765625 -1.195312 7.765625 -1.875 L 7.765625 -11.5 L 8.625 -9.0625 L 0.984375 -19.796875 C 0.710938 -20.179688 0.59375 -20.585938 0.625 -21.015625 C 0.65625 -21.453125 0.828125 -21.820312 1.140625 -22.125 C 1.453125 -22.4375 1.894531 -22.59375 2.46875 -22.59375 C 2.894531 -22.59375 3.28125 -22.484375 3.625 -22.265625 C 3.976562 -22.054688 4.3125 -21.734375 4.625 -21.296875 L 10.296875 -13.25 L 9.40625 -13.25 L 15.109375 -21.296875 C 15.453125 -21.753906 15.78125 -22.082031 16.09375 -22.28125 C 16.414062 -22.488281 16.804688 -22.59375 17.265625 -22.59375 C 17.816406 -22.59375 18.242188 -22.445312 18.546875 -22.15625 C 18.859375 -21.875 19.019531 -21.519531 19.03125 -21.09375 C 19.039062 -20.675781 18.882812 -20.234375 18.5625 -19.765625 L 11 -9.0625 L 11.8125 -11.5 L 11.8125 -1.875 C 11.8125 -0.457031 11.140625 0.25 9.796875 0.25 Z M 9.796875 0.25 "/></g></g></g><g fill="#000000" fill-opacity="1"><g transform="translate(80.603756, 35.533187)"><g><path d="M 12.453125 0.3125 C 10.296875 0.3125 8.410156 -0.160156 6.796875 -1.109375 C 5.179688 -2.054688 3.929688 -3.390625 3.046875 -5.109375 C 2.160156 -6.835938 1.71875 -8.863281 1.71875 -11.1875 C 1.71875 -12.9375 1.96875 -14.515625 2.46875 -15.921875 C 2.976562 -17.328125 3.703125 -18.53125 4.640625 -19.53125 C 5.578125 -20.539062 6.707031 -21.3125 8.03125 -21.84375 C 9.351562 -22.382812 10.828125 -22.65625 12.453125 -22.65625 C 14.628906 -22.65625 16.519531 -22.1875 18.125 -21.25 C 19.726562 -20.3125 20.972656 -18.984375 21.859375 -17.265625 C 22.742188 -15.554688 23.1875 -13.539062 23.1875 -11.21875 C 23.1875 -9.46875 22.929688 -7.882812 22.421875 -6.46875 C 21.921875 -5.050781 21.203125 -3.832031 20.265625 -2.8125 C 19.328125 -1.800781 18.195312 -1.023438 16.875 -0.484375 C 15.550781 0.046875 14.078125 0.3125 12.453125 0.3125 Z M 12.453125 -3.171875 C 13.828125 -3.171875 14.992188 -3.484375 15.953125 -4.109375 C 16.910156 -4.742188 17.648438 -5.664062 18.171875 -6.875 C 18.691406 -8.082031 18.953125 -9.519531 18.953125 -11.1875 C 18.953125 -13.71875 18.382812 -15.679688 17.25 -17.078125 C 16.125 -18.472656 14.523438 -19.171875 12.453125 -19.171875 C 11.097656 -19.171875 9.9375 -18.859375 8.96875 -18.234375 C 8 -17.609375 7.253906 -16.695312 6.734375 -15.5 C 6.210938 -14.3125 5.953125 -12.875 5.953125 -11.1875 C 5.953125 -8.675781 6.519531 -6.710938 7.65625 -5.296875 C 8.800781 -3.878906 10.398438 -3.171875 12.453125 -3.171875 Z M 12.453125 -3.171875 "/></g></g></g><g fill="#000000" fill-opacity="1"><g transform="translate(105.471445, 35.533187)"><g><path d="M 9.859375 0.25 C 9.203125 0.25 8.695312 0.0664062 8.34375 -0.296875 C 8 -0.671875 7.828125 -1.1875 7.828125 -1.84375 L 7.828125 -18.953125 L 1.640625 -18.953125 C 1.097656 -18.953125 0.671875 -19.101562 0.359375 -19.40625 C 0.0546875 -19.71875 -0.09375 -20.132812 -0.09375 -20.65625 C -0.09375 -21.207031 0.0546875 -21.625 0.359375 -21.90625 C 0.671875 -22.195312 1.097656 -22.34375 1.640625 -22.34375 L 18.0625 -22.34375 C 18.613281 -22.34375 19.039062 -22.195312 19.34375 -21.90625 C 19.644531 -21.625 19.796875 -21.207031 19.796875 -20.65625 C 19.796875 -20.132812 19.644531 -19.71875 19.34375 -19.40625 C 19.039062 -19.101562 18.613281 -18.953125 18.0625 -18.953125 L 11.875 -18.953125 L 11.875 -1.84375 C 11.875 -1.1875 11.707031 -0.671875 11.375 -0.296875 C 11.039062 0.0664062 10.535156 0.25 9.859375 0.25 Z M 9.859375 0.25 "/></g></g></g><g fill="#000000" fill-opacity="1"><g transform="translate(125.143836, 35.533187)"><g><path d="M 4.46875 0.25 C 3.8125 0.25 3.304688 0.0664062 2.953125 -0.296875 C 2.609375 -0.671875 2.4375 -1.1875 2.4375 -1.84375 L 2.4375 -20.5 C 2.4375 -21.175781 2.609375 -21.691406 2.953125 -22.046875 C 3.304688 -22.410156 3.8125 -22.59375 4.46875 -22.59375 C 5.125 -22.59375 5.625 -22.410156 5.96875 -22.046875 C 6.320312 -21.691406 6.5 -21.175781 6.5 -20.5 L 6.5 -1.84375 C 6.5 -1.1875 6.328125 -0.671875 5.984375 -0.296875 C 5.648438 0.0664062 5.144531 0.25 4.46875 0.25 Z M 4.46875 0.25 "/></g></g></g><g fill="#000000" fill-opacity="1"><g transform="translate(134.077197, 35.533187)"><g><path d="M 4.59375 0 C 3.894531 0 3.359375 -0.179688 2.984375 -0.546875 C 2.617188 -0.921875 2.4375 -1.457031 2.4375 -2.15625 L 2.4375 -20.1875 C 2.4375 -20.882812 2.617188 -21.414062 2.984375 -21.78125 C 3.359375 -22.15625 3.894531 -22.34375 4.59375 -22.34375 L 10.734375 -22.34375 C 14.472656 -22.34375 17.363281 -21.378906 19.40625 -19.453125 C 21.445312 -17.535156 22.46875 -14.78125 22.46875 -11.1875 C 22.46875 -9.394531 22.207031 -7.804688 21.6875 -6.421875 C 21.164062 -5.035156 20.40625 -3.863281 19.40625 -2.90625 C 18.40625 -1.957031 17.179688 -1.234375 15.734375 -0.734375 C 14.285156 -0.242188 12.617188 0 10.734375 0 Z M 6.5 -3.359375 L 10.484375 -3.359375 C 11.796875 -3.359375 12.929688 -3.519531 13.890625 -3.84375 C 14.859375 -4.175781 15.660156 -4.664062 16.296875 -5.3125 C 16.941406 -5.957031 17.421875 -6.769531 17.734375 -7.75 C 18.054688 -8.726562 18.21875 -9.875 18.21875 -11.1875 C 18.21875 -13.800781 17.570312 -15.753906 16.28125 -17.046875 C 15 -18.335938 13.066406 -18.984375 10.484375 -18.984375 L 6.5 -18.984375 Z M 6.5 -3.359375 "/></g></g></g><g fill="#000000" fill-opacity="1"><g transform="translate(158.216275, 35.533187)"><g><path d="M 4.46875 0.25 C 3.8125 0.25 3.304688 0.0664062 2.953125 -0.296875 C 2.609375 -0.671875 2.4375 -1.1875 2.4375 -1.84375 L 2.4375 -20.5 C 2.4375 -21.175781 2.609375 -21.691406 2.953125 -22.046875 C 3.304688 -22.410156 3.8125 -22.59375 4.46875 -22.59375 C 5.125 -22.59375 5.625 -22.410156 5.96875 -22.046875 C 6.320312 -21.691406 6.5 -21.175781 6.5 -20.5 L 6.5 -1.84375 C 6.5 -1.1875 6.328125 -0.671875 5.984375 -0.296875 C 5.648438 0.0664062 5.144531 0.25 4.46875 0.25 Z M 4.46875 0.25 "/></g></g></g><g fill="#000000" fill-opacity="1"><g transform="translate(167.149636, 35.533187)"><g><path d="M 13.1875 0.3125 C 10.707031 0.3125 8.617188 -0.148438 6.921875 -1.078125 C 5.222656 -2.003906 3.929688 -3.320312 3.046875 -5.03125 C 2.160156 -6.75 1.71875 -8.78125 1.71875 -11.125 C 1.71875 -12.894531 1.972656 -14.488281 2.484375 -15.90625 C 3.003906 -17.320312 3.753906 -18.53125 4.734375 -19.53125 C 5.710938 -20.539062 6.910156 -21.3125 8.328125 -21.84375 C 9.742188 -22.382812 11.351562 -22.65625 13.15625 -22.65625 C 14.332031 -22.65625 15.515625 -22.507812 16.703125 -22.21875 C 17.898438 -21.9375 19.03125 -21.457031 20.09375 -20.78125 C 20.445312 -20.550781 20.679688 -20.265625 20.796875 -19.921875 C 20.921875 -19.585938 20.9375 -19.242188 20.84375 -18.890625 C 20.757812 -18.546875 20.601562 -18.25 20.375 -18 C 20.144531 -17.75 19.851562 -17.585938 19.5 -17.515625 C 19.15625 -17.453125 18.769531 -17.539062 18.34375 -17.78125 C 17.539062 -18.238281 16.726562 -18.570312 15.90625 -18.78125 C 15.082031 -19 14.164062 -19.109375 13.15625 -19.109375 C 11.59375 -19.109375 10.269531 -18.796875 9.1875 -18.171875 C 8.113281 -17.546875 7.304688 -16.640625 6.765625 -15.453125 C 6.222656 -14.273438 5.953125 -12.832031 5.953125 -11.125 C 5.953125 -8.519531 6.578125 -6.539062 7.828125 -5.1875 C 9.078125 -3.84375 10.925781 -3.171875 13.375 -3.171875 C 14.21875 -3.171875 15.070312 -3.253906 15.9375 -3.421875 C 16.800781 -3.585938 17.644531 -3.820312 18.46875 -4.125 L 17.6875 -2.3125 L 17.6875 -9.0625 L 14.203125 -9.0625 C 13.671875 -9.0625 13.257812 -9.195312 12.96875 -9.46875 C 12.6875 -9.75 12.546875 -10.117188 12.546875 -10.578125 C 12.546875 -11.066406 12.6875 -11.4375 12.96875 -11.6875 C 13.257812 -11.945312 13.671875 -12.078125 14.203125 -12.078125 L 19.421875 -12.078125 C 19.953125 -12.078125 20.359375 -11.929688 20.640625 -11.640625 C 20.929688 -11.359375 21.078125 -10.953125 21.078125 -10.421875 L 21.078125 -2.71875 C 21.078125 -2.257812 20.984375 -1.867188 20.796875 -1.546875 C 20.617188 -1.234375 20.332031 -1.003906 19.9375 -0.859375 C 19 -0.515625 17.925781 -0.234375 16.71875 -0.015625 C 15.519531 0.203125 14.34375 0.3125 13.1875 0.3125 Z M 13.1875 0.3125 "/></g></g></g><g fill="#000000" fill-opacity="1"><g transform="translate(190.465069, 35.533187)"><g><path d="M 4.46875 0.25 C 3.8125 0.25 3.304688 0.0664062 2.953125 -0.296875 C 2.609375 -0.671875 2.4375 -1.1875 2.4375 -1.84375 L 2.4375 -20.5 C 2.4375 -21.175781 2.609375 -21.691406 2.953125 -22.046875 C 3.304688 -22.410156 3.8125 -22.59375 4.46875 -22.59375 C 5.125 -22.59375 5.625 -22.410156 5.96875 -22.046875 C 6.320312 -21.691406 6.5 -21.175781 6.5 -20.5 L 6.5 -1.84375 C 6.5 -1.1875 6.328125 -0.671875 5.984375 -0.296875 C 5.648438 0.0664062 5.144531 0.25 4.46875 0.25 Z M 4.46875 0.25 "/></g></g></g><g fill="#000000" fill-opacity="1"><g transform="translate(199.39843, 35.533187)"><g><path d="M 9.859375 0.25 C 9.203125 0.25 8.695312 0.0664062 8.34375 -0.296875 C 8 -0.671875 7.828125 -1.1875 7.828125 -1.84375 L 7.828125 -18.953125 L 1.640625 -18.953125 C 1.097656 -18.953125 0.671875 -19.101562 0.359375 -19.40625 C 0.0546875 -19.71875 -0.09375 -20.132812 -0.09375 -20.65625 C -0.09375 -21.207031 0.0546875 -21.625 0.359375 -21.90625 C 0.671875 -22.195312 1.097656 -22.34375 1.640625 -22.34375 L 18.0625 -22.34375 C 18.613281 -22.34375 19.039062 -22.195312 19.34375 -21.90625 C 19.644531 -21.625 19.796875 -21.207031 19.796875 -20.65625 C 19.796875 -20.132812 19.644531 -19.71875 19.34375 -19.40625 C 19.039062 -19.101562 18.613281 -18.953125 18.0625 -18.953125 L 11.875 -18.953125 L 11.875 -1.84375 C 11.875 -1.1875 11.707031 -0.671875 11.375 -0.296875 C 11.039062 0.0664062 10.535156 0.25 9.859375 0.25 Z M 9.859375 0.25 "/></g></g></g></svg>